<svg xmlns="http://www.w3.org/2000/svg" version="1.1" xmlns:xlink="http://www.w3.org/1999/xlink" xmlns:svgjs="http://svgjs.dev/svgjs" width="1000" height="999" viewBox="0 0 1000 999"><g transform="matrix(1,0,0,1,-0.215743440233382,-0.21552769679306039)"><svg viewBox="0 0 343 343" data-background-color="#ffffff" preserveAspectRatio="xMidYMid meet" height="999" width="1000" xmlns="http://www.w3.org/2000/svg" xmlns:xlink="http://www.w3.org/1999/xlink"><g id="tight-bounds" transform="matrix(1,0,0,1,0.0740000000000407,0.07400000000001228)"><svg viewBox="0 0 342.85155851775386 342.85155851775386" height="342.85155851775386" width="342.85155851775386"><g><svg></svg></g><g><svg viewBox="0 0 342.85155851775386 342.85155851775386" height="342.85155851775386" width="342.85155851775386"><g><path d="M0 171.426c0-94.676 76.75-171.426 171.426-171.426 94.676 0 171.426 76.75 171.426 171.426 0 94.676-76.75 171.426-171.426 171.426-94.676 0-171.426-76.75-171.426-171.426zM171.426 338.097c92.05 0 166.671-74.621 166.671-166.671 0-92.05-74.621-166.671-166.671-166.672-92.05 0-166.671 74.621-166.672 166.672 0 92.05 74.621 166.671 166.672 166.671z" data-fill-palette-color="tertiary" fill="#5ebc67" stroke="transparent"></path><ellipse rx="164.56874808852186" ry="164.56874808852186" cx="171.42577925887693" cy="171.42577925887693" fill="#5ebc67" stroke="transparent" stroke-width="0" fill-opacity="1" data-fill-palette-color="tertiary"></ellipse></g><g transform="matrix(1,0,0,1,64.84655864529837,114.71714060258472)"><svg viewBox="0 0 213.1584412271571 113.41727731258442" height="113.41727731258442" width="213.1584412271571"><g><svg viewBox="0 0 213.1584412271571 113.41727731258442" height="113.41727731258442" width="213.1584412271571"><g transform="matrix(1,0,0,1,0,60.69641922716689)"><svg viewBox="0 0 213.1584412271571 52.72085808541752" height="52.72085808541752" width="213.1584412271571"><g id="textblocktransform"><svg viewBox="0 0 213.1584412271571 52.72085808541752" height="52.72085808541752" width="213.1584412271571" id="textblock"><g><svg viewBox="0 0 213.1584412271571 52.72085808541752" height="52.72085808541752" width="213.1584412271571"><g transform="matrix(1,0,0,1,0,0)"><svg width="213.1584412271571" viewBox="0.25 -38.1 215.48 53.3" height="52.72085808541752" data-palette-color="#ffffff"><path d="M37.25-10.75L37.25-10.75 38.85-8.3Q38.1-5.6 36.8-3.75 35.5-1.9 34.05-1.1L34.05-1.1Q31.5 0.3 29.2 0.3L29.2 0.3Q25.2 0.3 23.28-2.02 21.35-4.35 21.25-8.25L21.25-8.25Q21.1-14.55 20.5-16.1 19.9-17.65 17.75-17.85L17.75-17.85 18.1-21.6Q19-21.75 19.5-22 20-22.25 20.8-23L20.8-23Q22.5-24.5 23.3-30.05L23.3-30.05Q23.95-34.25 25.98-36.15 28-38.05 30.35-38.05 32.7-38.05 34.5-36.68 36.3-35.3 36.3-32.25L36.3-32.25Q36.3-28.2 33.38-25.25 30.45-22.3 25.25-19.9L25.25-19.9Q27.05-19.05 27.9-17.05 28.75-15.05 28.85-12.85 28.95-10.65 29-8.6L29-8.6Q29.2-3.8 31.85-3.8L31.85-3.8Q34.95-3.8 37.25-10.75ZM6.1 0.3L6.1 0.3Q3.45 0.3 1.85-1.3 0.25-2.9 0.25-5.4L0.25-5.4Q0.25-11.25 9.1-15.45L9.1-15.45Q9.45-18.4 10.1-23.8L10.1-23.8Q11.35-34.9 11.6-36.7L11.6-36.7Q13.65-38 15.88-38 18.1-38 19.25-37.75L19.25-37.75 15.55-9.5Q14.05 0.3 6.1 0.3ZM32.8-31.1Q32.8-31.85 32.38-32.25 31.95-32.65 31.55-32.65 31.15-32.65 30.93-32.55 30.7-32.45 30.53-32.23 30.35-32 30.25-31.78 30.15-31.55 30.03-31.1 29.9-30.65 29.83-30.33 29.75-30 29.6-29.4 29.45-28.8 29.2-27.78 28.95-26.75 28.6-25.7L28.6-25.7Q32.8-28.4 32.8-31.1L32.8-31.1ZM3.95-6.05L3.95-6.05Q3.95-4.25 5.65-4.25L5.65-4.25Q6.35-4.25 7.13-5.18 7.9-6.1 8.2-8.1L8.2-8.1 8.6-11.2Q3.95-8.5 3.95-6.05ZM45.05-11.2Q48.15-11.85 49.67-13.7 51.2-15.55 51.2-17.28 51.2-19 50.27-19.63 49.35-20.25 48.25-20.25L48.25-20.25Q45.9-20.25 44.12-17.63 42.35-15 42.35-11.38 42.35-7.75 44.07-5.98 45.8-4.2 48.35-4.2L48.35-4.2Q52.1-4.2 55.55-6.8 59-9.4 61.15-13.6L61.15-13.6Q62.25-12.55 63.15-11L63.15-11Q61.5-7.25 57.3-3.65L57.3-3.65Q55.2-1.9 52.32-0.8 49.45 0.3 46.4 0.3L46.4 0.3Q41.4 0.3 38.5-2.75L38.5-2.75Q35.4-6.05 35.4-11.2 35.4-16.35 39.27-20.2 43.15-24.05 48.55-24.05L48.55-24.05Q52.4-24.05 54.8-22.38 57.2-20.7 57.25-17.85L57.25-17.85Q57.25-14 54.17-11.6 51.1-9.2 45.75-8.25L45.75-8.25 45.05-11.2ZM67.65 14.85L67.65 14.85Q64.8 14.85 62.75 13.13 60.7 11.4 60.7 8.1L60.7 8.1Q60.7 4.05 64.8 0.2L64.8 0.2Q61.9-0.05 60.15-1.7 58.4-3.35 58.4-6.35L58.4-6.35Q58.4-7.75 58.75-10.55 59.1-13.35 59.5-16.6 59.9-19.85 60.35-23.5L60.35-23.5Q61.9-24.05 63.2-24.05 64.5-24.05 65.15-23.95 65.8-23.85 66.4-23.2 67-22.55 67-21.35L67-21.35 65.35-8.6Q65.25-7.8 65.25-7.5L65.25-7.5Q65.25-4.55 67.95-4.55L67.95-4.55Q70.4-4.55 71.95-6.85L71.95-6.85Q72.1-8 72.7-13.48 73.3-18.95 73.7-22L73.7-22Q74.15-22.95 75.57-23.5 77-24.05 77.9-24.05L77.9-24.05Q79.5-24.05 80.8-23.65L80.8-23.65 78.45-5.2Q84.3-4.15 85.45 2.85L85.45 2.85Q85.25 3.8 83.55 5.85L83.55 5.85Q82.55-0.4 78.05-1.75L78.05-1.75 77.25 4.5Q76.7 9 74.4 11.93 72.1 14.85 67.65 14.85ZM64.6 7.15Q64.6 8.8 65.4 9.6 66.2 10.4 67.52 10.4 68.85 10.4 69.55 9.3 70.25 8.2 70.65 4.9L70.65 4.9 71.3-0.6Q64.75 2.8 64.6 7.15L64.6 7.15ZM109.49-32.4L109.49-32.4Q108.69-32.75 107.92-32.75 107.14-32.75 106.42-31.8 105.69-30.85 105.44-29.05L105.44-29.05 102.84-10.5Q102.14-5.45 99.37-2.55 96.59 0.35 92.44 0.35L92.44 0.35Q88.29 0.35 86.02-1.98 83.74-4.3 83.74-7.53 83.74-10.75 85.97-13 88.19-15.25 91.59-15.25L91.59-15.25Q93.69-15.25 94.89-14.95L94.89-14.95 94.64-11.9Q93.79-12.1 92.02-12.1 90.24-12.1 88.87-10.9 87.49-9.7 87.49-7.9 87.49-6.1 88.49-5.13 89.49-4.15 90.89-4.15L90.89-4.15Q95.09-4.15 95.79-10.35L95.79-10.35Q97.14-22.75 97.74-27.1L97.74-27.1Q94.74-26.05 92.44-26.05L92.44-26.05Q88.79-26.05 86.87-27.75 84.94-29.45 84.94-32.2 84.94-34.95 86.92-36.52 88.89-38.1 91.89-38.1L91.89-38.1Q93.74-38.1 97.22-36.95 100.69-35.8 102.59-35.8L102.59-35.8Q105.99-35.8 108.29-37.55L108.29-37.55Q109.54-35.8 109.54-33.4L109.54-33.4Q109.54-32.9 109.49-32.4ZM89.89-30.85L89.89-30.85Q89.89-30.1 90.72-29.55 91.54-29 93.22-29 94.89-29 97.59-30.5L97.59-30.5Q95.64-30.95 93.59-31.53 91.54-32.1 91.14-32.1L91.14-32.1Q89.89-32.1 89.89-30.85ZM121.74-5.6L121.74-5.6 122.94-16.75Q122.94-18.1 122.24-19 121.54-19.9 119.92-19.9 118.29-19.9 117.17-18.48 116.04-17.05 115.74-14.9L115.74-14.9Q113.94-1.2 113.84 0L113.84 0 107.09 0 109.84-23.55Q111.94-24.1 113.04-24.1L113.04-24.1Q116.39-24.1 116.54-21.65L116.54-21.65Q118.99-24.05 122.42-24.05 125.84-24.05 127.79-22.35 129.74-20.65 129.74-18.05L129.74-18.05Q129.74-17.35 129.44-15.4L129.44-15.4Q128.29-7.8 128.29-6.55L128.29-6.55Q128.29-4.25 129.84-4.25L129.84-4.25Q133.24-4.25 134.99-11.35L134.99-11.35Q136.69-9.55 137.04-8.5L137.04-8.5Q134.39 0.3 127.84 0.3L127.84 0.3Q124.74 0.3 123.24-1.6 121.74-3.5 121.74-5.6ZM151.14-4.35L151.14-4.35Q151.69-4.15 152.36-4.15 153.04-4.15 153.66-4.3 154.29-4.45 154.81-5.03 155.34-5.6 155.64-5.95 155.94-6.3 156.39-7.5L156.39-7.5Q156.94-8.9 157.74-11.45L157.74-11.45Q159.84-9.5 160.24-8.5L160.24-8.5Q157.84 0.3 151.79 0.3L151.79 0.3Q148.94 0.3 144.54-3.4L144.54-3.4Q142.24 0.3 137.39 0.3L137.39 0.3Q135.24 0.3 133.51-1.15 131.79-2.6 131.79-5.3 131.79-8 133.59-9.73 135.39-11.45 138.24-11.45L138.24-11.45Q138.79-11.45 139.79-11.35L139.79-11.35 140.49-17.7Q138.29-17 133.69-15.9L133.69-15.9 133.69-19.65Q137.44-20.5 140.89-21.55L140.89-21.55 141.89-29.7Q142.94-38.05 150.39-38.05L150.39-38.05Q153.34-38.05 155.11-36.43 156.89-34.8 156.89-31.85L156.89-31.85Q156.89-24.75 147.74-20.4L147.74-20.4 146.24-8.6 146.19-8.1Q149.89-4.8 151.14-4.35ZM153.14-31.45L153.14-31.45Q153.14-33.55 151.39-33.55L151.39-33.55Q149.29-33.55 148.74-28.6L148.74-28.6 148.24-24.65Q153.14-27.55 153.14-31.45ZM135.59-5.65L135.59-5.65Q135.59-4.15 137.29-4.15L137.29-4.15Q138.94-4.15 139.34-7.1L139.34-7.1Q138.39-7.5 137.56-7.5 136.74-7.5 136.16-6.95 135.59-6.4 135.59-5.65ZM160.44-36.83Q161.59-38 163.24-38 164.89-38 166.06-36.83 167.24-35.65 167.24-34 167.24-32.35 166.06-31.2 164.89-30.05 163.24-30.05 161.59-30.05 160.44-31.2 159.29-32.35 159.29-34 159.29-35.65 160.44-36.83ZM158.39-22.15Q158.89-23.05 160.29-23.53 161.69-24 163.06-24 164.44-24 165.49-23.65L165.49-23.65Q163.54-8.6 163.54-8.45L163.54-8.45Q163.29-7.45 163.29-6.78 163.29-6.1 163.39-5.6L163.39-5.6Q163.59-4.3 165.21-4.3 166.84-4.3 168.21-6.43 169.59-8.55 170.29-11.25L170.29-11.25Q170.64-11.05 171.39-10.05 172.14-9.05 172.29-8.55L172.29-8.55Q171.29-4.55 168.89-2.1L168.89-2.1Q166.49 0.35 163.14 0.35 159.79 0.35 158.16-1.3 156.54-2.95 156.54-5.55L156.54-5.55Q156.54-6.1 156.59-6.7L156.59-6.7 158.39-22.15ZM181.68 0.05L181.68 0.05Q184.43 4.9 184.43 8.08 184.43 11.25 182.51 13.23 180.58 15.2 177.48 15.2 174.38 15.2 172.41 13.48 170.43 11.75 170.43 8.7L170.43 8.7Q170.43 8.1 170.63 6.3L170.63 6.3 172.18-7.2Q169.23-11.15 167.33-13.5L167.33-13.5Q169.03-15.85 170.18-15.85L170.18-15.85Q170.73-15.85 171.21-15.3 171.68-14.75 172.83-13.25L172.83-13.25 174.73-30.05Q175.13-33.35 176.33-35.4L176.33-35.4Q177.93-38.05 182.23-38.05L182.23-38.05Q185.28-38.05 186.88-36.38 188.48-34.7 188.48-31.75L188.48-31.75Q188.48-27.8 185.91-23.95 183.33-20.1 179.93-17.2L179.93-17.2 178.68-5.15Q179.53-4.2 181.08-4.2L181.08-4.2Q184.18-4.2 186.26-6.83 188.33-9.45 189.88-14.25L189.88-14.25Q190.58-13.85 191.36-13.23 192.13-12.6 192.23-12.35L192.23-12.35Q191.08-6.8 188.23-3.75 185.38-0.7 181.68 0.05ZM184.03-33.7L184.03-33.7Q183.78-33.75 183.53-33.75L183.53-33.75Q182.18-33.75 181.73-32 181.28-30.25 180.63-23.95L180.63-23.95 180.43-22.05Q182.58-24.25 183.91-26.73 185.23-29.2 185.23-31.23 185.23-33.25 184.03-33.7ZM178.08 0.6L177.33 7.6Q177.28 7.85 177.28 8.68 177.28 9.5 177.78 10.05 178.28 10.6 179.11 10.6 179.93 10.6 180.58 9.93 181.23 9.25 181.23 7.85L181.23 7.85Q181.23 5.2 178.08 0.6L178.08 0.6ZM197.63-11.2Q200.73-11.85 202.26-13.7 203.78-15.55 203.78-17.28 203.78-19 202.86-19.63 201.93-20.25 200.83-20.25L200.83-20.25Q198.48-20.25 196.71-17.63 194.93-15 194.93-11.38 194.93-7.75 196.66-5.98 198.38-4.2 200.93-4.2L200.93-4.2Q204.68-4.2 208.13-6.8 211.58-9.4 213.73-13.6L213.73-13.6Q214.83-12.55 215.73-11L215.73-11Q214.08-7.25 209.88-3.65L209.88-3.65Q207.78-1.9 204.91-0.8 202.03 0.3 198.98 0.3L198.98 0.3Q193.98 0.3 191.08-2.75L191.08-2.75Q187.98-6.05 187.98-11.2 187.98-16.35 191.86-20.2 195.73-24.05 201.13-24.05L201.13-24.05Q204.98-24.05 207.38-22.38 209.78-20.7 209.83-17.85L209.83-17.85Q209.83-14 206.76-11.6 203.68-9.2 198.33-8.25L198.33-8.25 197.63-11.2Z" opacity="1" transform="matrix(1,0,0,1,0,0)" fill="#ffffff" class="wordmark-text-0" data-fill-palette-color="quaternary" id="text-0"></path></svg></g></svg></g></svg></g></svg></g><g transform="matrix(1,0,0,1,40.71326227438702,0)"><svg viewBox="0 0 131.73191667838307 48.250289933793866" height="48.250289933793866" width="131.73191667838307"><g><svg xmlns="http://www.w3.org/2000/svg" xmlns:xlink="http://www.w3.org/1999/xlink" version="1.1" x="7.999999999999993" y="0" viewBox="2.474 31.334000000000003 94.902 39.566" enable-background="new 0 0 100 100" xml:space="preserve" height="48.250289933793866" width="115.73191667838309" class="icon-icon-0" data-fill-palette-color="quaternary" id="icon-0"><g fill="#ffffff" data-fill-palette-color="quaternary"><path d="M92.292 35.549H76.211v-0.821c0-1.871-1.522-3.394-3.395-3.394H27.033c-1.872 0-3.395 1.522-3.395 3.394v0.821H7.558c-2.804 0-5.084 2.281-5.084 5.083v25.184c0 2.802 2.28 5.084 5.084 5.084h84.734c2.803 0 5.084-2.282 5.084-5.084V40.632C97.376 37.83 95.095 35.549 92.292 35.549zM94.562 65.815c0 1.251-1.019 2.27-2.27 2.27H7.558c-1.252 0-2.271-1.019-2.271-2.27V40.632c0-1.251 1.019-2.27 2.271-2.27h17.488c0.776 0 1.406-0.629 1.406-1.406v-2.229c0-0.319 0.261-0.58 0.581-0.58h45.783c0.32 0 0.58 0.261 0.58 0.58v2.229c0 0.777 0.631 1.406 1.407 1.406h17.488c1.251 0 2.27 1.019 2.27 2.27V65.815z" fill="#ffffff" data-fill-palette-color="quaternary"></path><path d="M89.97 63.221H74.728c-0.776 0-1.407 0.631-1.407 1.406 0 0.777 0.631 1.408 1.407 1.408H89.97c0.776 0 1.407-0.631 1.407-1.408C91.377 63.852 90.746 63.221 89.97 63.221z" fill="#ffffff" data-fill-palette-color="quaternary"></path><path d="M70.279 63.221H59.903c-0.777 0-1.407 0.631-1.407 1.406 0 0.777 0.63 1.408 1.407 1.408h10.376c0.776 0 1.407-0.631 1.407-1.408C71.687 63.852 71.056 63.221 70.279 63.221z" fill="#ffffff" data-fill-palette-color="quaternary"></path><path d="M56.206 63.221H28.255c-0.776 0-1.406 0.631-1.406 1.406 0 0.777 0.63 1.408 1.406 1.408h27.951c0.776 0 1.407-0.631 1.407-1.408C57.613 63.852 56.982 63.221 56.206 63.221z" fill="#ffffff" data-fill-palette-color="quaternary"></path><path d="M24.234 63.221H9.879c-0.777 0-1.406 0.631-1.406 1.406 0 0.777 0.629 1.408 1.406 1.408h14.355c0.777 0 1.407-0.631 1.407-1.408C25.642 63.852 25.012 63.221 24.234 63.221z" fill="#ffffff" data-fill-palette-color="quaternary"></path><path d="M89.97 57.709H74.728c-0.776 0-1.407 0.629-1.407 1.405 0 0.778 0.631 1.409 1.407 1.409H89.97c0.776 0 1.407-0.631 1.407-1.409C91.377 58.338 90.746 57.709 89.97 57.709z" fill="#ffffff" data-fill-palette-color="quaternary"></path><path d="M70.297 57.709h-6.153c-0.776 0-1.407 0.629-1.407 1.405 0 0.778 0.631 1.409 1.407 1.409h6.153c0.776 0 1.407-0.631 1.407-1.409C71.704 58.338 71.073 57.709 70.297 57.709z" fill="#ffffff" data-fill-palette-color="quaternary"></path><path d="M17.699 57.709c-0.777 0-1.406 0.629-1.406 1.405 0 0.778 0.629 1.409 1.406 1.409h42.224c0.776 0 1.407-0.631 1.407-1.409 0-0.776-0.631-1.405-1.407-1.405H17.699z" fill="#ffffff" data-fill-palette-color="quaternary"></path><path d="M9.879 60.523h3.967c0.777 0 1.407-0.631 1.407-1.409 0-0.776-0.63-1.405-1.407-1.405H9.879c-0.777 0-1.406 0.629-1.406 1.405C8.473 59.893 9.102 60.523 9.879 60.523z" fill="#ffffff" data-fill-palette-color="quaternary"></path><path d="M89.97 52.196H74.728c-0.776 0-1.407 0.63-1.407 1.406 0 0.777 0.631 1.407 1.407 1.407H89.97c0.776 0 1.407-0.63 1.407-1.407C91.377 52.826 90.746 52.196 89.97 52.196z" fill="#ffffff" data-fill-palette-color="quaternary"></path><path d="M70.297 46.685h-4.759c-0.776 0-1.407 0.629-1.407 1.405 0 0.778 0.631 1.407 1.407 1.407h3.352v3.847c0 0.778 0.631 1.407 1.407 1.407s1.407-0.629 1.407-1.407V48.09C71.704 47.313 71.073 46.685 70.297 46.685z" fill="#ffffff" data-fill-palette-color="quaternary"></path><path d="M66.863 53.603c0-0.776-0.631-1.406-1.407-1.406H20.04c-0.777 0-1.407 0.63-1.407 1.406 0 0.777 0.63 1.407 1.407 1.407h45.416C66.232 55.01 66.863 54.38 66.863 53.603z" fill="#ffffff" data-fill-palette-color="quaternary"></path><path d="M9.879 55.01h6.02c0.776 0 1.406-0.63 1.406-1.407 0-0.776-0.63-1.406-1.406-1.406h-6.02c-0.777 0-1.406 0.63-1.406 1.406C8.473 54.38 9.102 55.01 9.879 55.01z" fill="#ffffff" data-fill-palette-color="quaternary"></path><path d="M89.97 46.685H74.728c-0.776 0-1.407 0.629-1.407 1.405 0 0.778 0.631 1.407 1.407 1.407H89.97c0.776 0 1.407-0.629 1.407-1.407C91.377 47.313 90.746 46.685 89.97 46.685z" fill="#ffffff" data-fill-palette-color="quaternary"></path><path d="M9.879 49.497h51.639c0.776 0 1.407-0.629 1.407-1.407 0-0.776-0.631-1.405-1.407-1.405H9.879c-0.777 0-1.406 0.629-1.406 1.405C8.473 48.868 9.102 49.497 9.879 49.497z" fill="#ffffff" data-fill-palette-color="quaternary"></path><path d="M89.97 41.172H74.728c-0.776 0-1.407 0.63-1.407 1.406 0 0.777 0.631 1.407 1.407 1.407H89.97c0.776 0 1.407-0.63 1.407-1.407C91.377 41.802 90.746 41.172 89.97 41.172z" fill="#ffffff" data-fill-palette-color="quaternary"></path><path d="M70.297 41.172h-9.518c-0.776 0-1.407 0.63-1.407 1.406 0 0.777 0.631 1.407 1.407 1.407h9.518c0.776 0 1.407-0.63 1.407-1.407C71.704 41.802 71.073 41.172 70.297 41.172z" fill="#ffffff" data-fill-palette-color="quaternary"></path><path d="M43.385 43.985h12.964c0.776 0 1.407-0.63 1.407-1.407 0-0.776-0.631-1.406-1.407-1.406H43.385c-0.776 0-1.407 0.63-1.407 1.406C41.978 43.355 42.608 43.985 43.385 43.985z" fill="#ffffff" data-fill-palette-color="quaternary"></path><path d="M23.773 43.985h15.181c0.776 0 1.407-0.63 1.407-1.407 0-0.776-0.631-1.406-1.407-1.406H23.773c-0.776 0-1.406 0.63-1.406 1.406C22.367 43.355 22.997 43.985 23.773 43.985z" fill="#ffffff" data-fill-palette-color="quaternary"></path><path d="M9.879 43.985h9.957c0.777 0 1.406-0.63 1.406-1.407 0-0.776-0.629-1.406-1.406-1.406H9.879c-0.777 0-1.406 0.63-1.406 1.406C8.473 43.355 9.102 43.985 9.879 43.985z" fill="#ffffff" data-fill-palette-color="quaternary"></path></g></svg></g></svg></g><g><rect width="40.71326227438702" height="4.754421390068496" y="42.49586854372537" x="172.4451789527701" fill="#5ebc67" data-fill-palette-color="accent"></rect><rect width="40.71326227438702" height="4.754421390068496" y="42.49586854372537" x="0" fill="#5ebc67" data-fill-palette-color="accent"></rect><rect width="40.71326227438702" height="4.754421390068496" y="32.98702576358838" x="172.4451789527701" fill="#5ebc67" data-fill-palette-color="accent"></rect><rect width="40.71326227438702" height="4.754421390068496" y="32.98702576358838" x="0" fill="#5ebc67" data-fill-palette-color="accent"></rect></g></svg></g></svg></g></svg></g><defs></defs></svg><rect width="342.85155851775386" height="342.85155851775386" fill="none" stroke="none" visibility="hidden"></rect></g></svg></g></svg>